<svg t="1688837196384" class="icon" viewBox="0 0 1024 1024" version="1.1" xmlns="http://www.w3.org/2000/svg" p-id="9044" width="200" height="200"><path d="M527.416108 942.584736c-247.242034 0-447.671902-200.421682-447.671902-447.663716 0-247.25022 200.429869-447.671902 447.671902-447.671902S975.08801 247.670799 975.08801 494.92102C975.08801 742.163053 774.658142 942.584736 527.416108 942.584736M527.416108 886.84627c137.823995 0 258.764462-71.307046 328.661392-178.834015-2.707668-0.497327-5.328355-1.482771-7.436366-3.581572l-158.264537-158.273746L553.554418 682.94637c-0.424672 0.529049-0.61603 1.178849-1.106194 1.675152l-19.816325 19.809161c-0.1361 0.151449-0.36839 0.191358-0.512676 0.336668l-18.710131 0c-0.144286-0.144286-0.376577-0.184195-0.529049-0.336668l-158.26556-158.27477L206.190059 694.541453c-3.702322 3.701299-8.879228 4.65502-13.583366 3.365654C261.32682 811.026444 385.369951 886.84627 527.416108 886.84627M527.416108 102.988606c-216.44768 0-391.925251 175.469384-391.925251 391.933437 0 56.19486 12.059664 109.497856 33.349549 157.800979l175.85517-175.814238c5.456269-5.496178 14.310937-5.496178 19.799952 0l19.768229 19.768229L522.456143 634.869399l158.000524-157.960615c5.456269-5.496178 14.310937-5.496178 19.800975 0l19.768229 19.768229 162.776294 162.768107c23.221888-50.065256 36.539194-105.692181 36.539194-164.523077C919.341359 278.456966 743.863788 102.988606 527.416108 102.988606" p-id="9045" fill="#ffffff"></path></svg>
